<svg width="18" height="18" viewBox="0 0 18 18" fill="none" xmlns="http://www.w3.org/2000/svg">
<path d="M7.5 6H12V7H7.5V6Z" fill="#979797"/>
<path d="M7.5 8H12V9H7.5V8Z" fill="#979797"/>
<path d="M7.5 10H12V11H7.5V10Z" fill="#979797"/>
<path d="M7.5 12H12V13H7.5V12Z" fill="#979797"/>
<path d="M5.5 4H6.5V5H5.5V4Z" fill="#979797"/>
<path d="M5.5 6H6.5V7H5.5V6Z" fill="#979797"/>
<path d="M5.5 8H6.5V9H5.5V8Z" fill="#979797"/>
<path d="M5.5 10H6.5V11H5.5V10Z" fill="#979797"/>
<path d="M5.5 12H6.5V13H5.5V12Z" fill="#979797"/>
<path d="M7.5 4V5H11.83C11.6332 4.6904 11.4833 4.35343 11.385 4H7.5Z" fill="#979797"/>
<path d="M14 6.61V16H4V2H11.39C11.4867 1.64685 11.635 1.3099 11.83 1H4C3.73478 1 3.48043 1.10536 3.29289 1.29289C3.10536 1.48043 3 1.73478 3 2V16C3 16.2652 3.10536 16.5196 3.29289 16.7071C3.48043 16.8946 3.73478 17 4 17H14C14.2652 17 14.5196 16.8946 14.7071 16.7071C14.8946 16.5196 15 16.2652 15 16V6.75C14.6619 6.74869 14.3255 6.7016 14 6.61V6.61Z" fill="#979797"/>
<path d="M15 5.5C16.3807 5.5 17.5 4.38071 17.5 3C17.5 1.61929 16.3807 0.5 15 0.5C13.6193 0.5 12.5 1.61929 12.5 3C12.5 4.38071 13.6193 5.5 15 5.5Z" fill="#979797"/>
</svg>
