<svg width="21" height="21" viewBox="0 0 21 21" fill="none" xmlns="http://www.w3.org/2000/svg">
<path fill-rule="evenodd" clip-rule="evenodd" d="M16.5 3.5C17.0304 3.5 17.5391 3.71071 17.9142 4.08579C18.2893 4.46086 18.5 4.96957 18.5 5.5V15.5C18.5 16.0304 18.2893 16.5391 17.9142 16.9142C17.5391 17.2893 17.0304 17.5 16.5 17.5L13.501 17.499L11.207 19.793C11.0348 19.9652 10.8057 20.0686 10.5627 20.0839C10.3197 20.0992 10.0794 20.0253 9.887 19.876L9.793 19.793L7.499 17.499L4.5 17.5C3.96957 17.5 3.46086 17.2893 3.08579 16.9142C2.71071 16.5391 2.5 16.0304 2.5 15.5V5.5C2.5 4.96957 2.71071 4.46086 3.08579 4.08579C3.46086 3.71071 3.96957 3.5 4.5 3.5H16.5Z" stroke="#979797" stroke-linecap="round" stroke-linejoin="round"/>
<path fill-rule="evenodd" clip-rule="evenodd" d="M10.499 11.5C10.999 11.5 11.499 11 11.499 10.5C11.499 10 10.999 9.5 10.499 9.5C9.999 9.5 9.5 10 9.5 10.5C9.5 11 9.999 11.5 10.499 11.5ZM6.499 11.5C6.999 11.5 7.499 11 7.499 10.5C7.499 10 6.999 9.5 6.499 9.5C5.999 9.5 5.5 10 5.5 10.5C5.5 11 5.999 11.5 6.499 11.5ZM14.499 11.5C14.999 11.5 15.499 11 15.499 10.5C15.499 10 14.999 9.5 14.499 9.5C13.999 9.5 13.5 10 13.5 10.5C13.5 11 13.999 11.5 14.499 11.5Z" fill="#979797"/>
</svg>
