<svg width="35" height="35" viewBox="0 0 35 35" fill="none" xmlns="http://www.w3.org/2000/svg">
<circle cx="17.5" cy="17.5" r="16.5" stroke="#CDCDCD" stroke-width="2"/>
<path d="M8.5332 17.7715C8.5332 17.1504 8.6543 16.5918 8.89648 16.0957C9.14258 15.5996 9.48242 15.2168 9.91602 14.9473C10.3535 14.6777 10.8516 14.543 11.4102 14.543C12.2734 14.543 12.9707 14.8418 13.502 15.4395C14.0371 16.0371 14.3047 16.832 14.3047 17.8242V17.9004C14.3047 18.5176 14.1855 19.0723 13.9473 19.5645C13.7129 20.0527 13.375 20.4336 12.9336 20.707C12.4961 20.9805 11.9922 21.1172 11.4219 21.1172C10.5625 21.1172 9.86523 20.8184 9.33008 20.2207C8.79883 19.623 8.5332 18.832 8.5332 17.8477V17.7715ZM9.62305 17.9004C9.62305 18.6035 9.78516 19.168 10.1094 19.5938C10.4375 20.0195 10.875 20.2324 11.4219 20.2324C11.9727 20.2324 12.4102 20.0176 12.7344 19.5879C13.0586 19.1543 13.2207 18.5488 13.2207 17.7715C13.2207 17.0762 13.0547 16.5137 12.7227 16.084C12.3945 15.6504 11.957 15.4336 11.4102 15.4336C10.875 15.4336 10.4434 15.6465 10.1152 16.0723C9.78711 16.498 9.62305 17.1074 9.62305 17.9004ZM17.6621 19.5293L19.2324 14.6602H20.3398L18.0664 21H17.2402L14.9434 14.6602H16.0508L17.6621 19.5293ZM21.002 17.7715C21.002 17.1504 21.123 16.5918 21.3652 16.0957C21.6113 15.5996 21.9512 15.2168 22.3848 14.9473C22.8223 14.6777 23.3203 14.543 23.8789 14.543C24.7422 14.543 25.4395 14.8418 25.9707 15.4395C26.5059 16.0371 26.7734 16.832 26.7734 17.8242V17.9004C26.7734 18.5176 26.6543 19.0723 26.416 19.5645C26.1816 20.0527 25.8438 20.4336 25.4023 20.707C24.9648 20.9805 24.4609 21.1172 23.8906 21.1172C23.0312 21.1172 22.334 20.8184 21.7988 20.2207C21.2676 19.623 21.002 18.832 21.002 17.8477V17.7715ZM22.0918 17.9004C22.0918 18.6035 22.2539 19.168 22.5781 19.5938C22.9062 20.0195 23.3438 20.2324 23.8906 20.2324C24.4414 20.2324 24.8789 20.0176 25.2031 19.5879C25.5273 19.1543 25.6895 18.5488 25.6895 17.7715C25.6895 17.0762 25.5234 16.5137 25.1914 16.084C24.8633 15.6504 24.4258 15.4336 23.8789 15.4336C23.3438 15.4336 22.9121 15.6465 22.584 16.0723C22.2559 16.498 22.0918 17.1074 22.0918 17.9004Z" fill="#8169A3"/>
</svg>
