<svg width="35" height="35" viewBox="0 0 35 35" fill="none" xmlns="http://www.w3.org/2000/svg">
<circle cx="17.5" cy="17.5" r="16.5" stroke="#CDCDCD" stroke-width="2"/>
<path d="M24.9205 13.5959C24.7774 13.4765 24.6037 13.3997 24.4191 13.3742C24.2344 13.3488 24.0464 13.3758 23.8764 13.4522L20.7149 14.8573L18.8741 11.5439C18.7875 11.388 18.6608 11.2581 18.5071 11.1677C18.3534 11.0772 18.1783 11.0295 18 11.0295C17.8217 11.0295 17.6466 11.0772 17.4929 11.1677C17.3392 11.2581 17.2125 11.388 17.1259 11.5439L15.285 14.8573L12.1231 13.4518C11.9529 13.3763 11.7651 13.3496 11.5807 13.375C11.3962 13.4004 11.2226 13.4768 11.0792 13.5955C10.9358 13.7143 10.8284 13.8707 10.7691 14.0471C10.7098 14.2236 10.7009 14.4131 10.7435 14.5943L12.3338 21.3653C12.364 21.4964 12.4207 21.62 12.5003 21.7284C12.5799 21.8369 12.6808 21.9279 12.7968 21.9961C12.9134 22.0647 13.0426 22.1092 13.1767 22.1269C13.3108 22.1446 13.4471 22.1352 13.5776 22.0992C16.4707 21.3005 19.5261 21.3002 22.4194 22.0984C22.5497 22.1344 22.686 22.1437 22.8201 22.126C22.9541 22.1083 23.0833 22.0638 23.1998 21.9952C23.3158 21.9271 23.4166 21.8361 23.4962 21.7278C23.5758 21.6194 23.6325 21.496 23.6628 21.365L25.2559 14.5951C25.2993 14.4139 25.2908 14.2241 25.2315 14.0474C25.1722 13.8707 25.0644 13.7143 24.9204 13.596L24.9205 13.5959Z" fill="#8169A3"/>
</svg>
