<svg width="16" height="16" viewBox="0 0 16 16" fill="none" xmlns="http://www.w3.org/2000/svg">
<path d="M15.3116 3.72059C15.2421 3.65045 15.1594 3.59482 15.0682 3.55695C14.9769 3.51908 14.8791 3.49972 14.7804 3.5H14.25V2.25C14.2498 2.05116 14.1707 1.86052 14.0301 1.71992C13.8895 1.57931 13.6988 1.50022 13.5 1.5H2.70709C2.12174 1.50001 1.56036 1.73254 1.14645 2.14645C0.732543 2.56036 0.500008 3.12174 0.5 3.70709V12.2929C0.500008 12.8783 0.732543 13.4396 1.14645 13.8535C1.56036 14.2675 2.12174 14.5 2.70709 14.5H14.7508C14.9492 14.4996 15.1394 14.4208 15.2799 14.2808C15.4204 14.1407 15.4998 13.9508 15.5008 13.7524L15.5303 4.25256C15.531 4.15382 15.5119 4.05594 15.4744 3.96462C15.4369 3.87329 15.3815 3.79034 15.3116 3.72059V3.72059ZM14.5017 13.5H2.70709C2.38695 13.5 2.07992 13.3728 1.85355 13.1465C1.62718 12.9201 1.5 12.613 1.5 12.2929V3.70709C1.5 3.38695 1.62718 3.07992 1.85355 2.85355C2.07992 2.62718 2.38695 2.5 2.70709 2.5H13.25V3.5H2.75V4.5H14.5296L14.5017 13.5Z" fill="#979797"/>
<path d="M12.25 8.25H13.25V9.25H12.25V8.25Z" fill="#979797"/>
</svg>
